<?xml version="1.0" encoding="UTF-8" standalone="no"?>
<svg
   xmlns:dc="http://purl.org/dc/elements/1.1/"
   xmlns:cc="http://creativecommons.org/ns#"
   xmlns:rdf="http://www.w3.org/1999/02/22-rdf-syntax-ns#"
   xmlns:svg="http://www.w3.org/2000/svg"
   xmlns="http://www.w3.org/2000/svg"
   viewBox="0 0 731.08813 569.70325"
   height="569.70325"
   width="731.08813"
   xml:space="preserve"
   id="svg28"
   version="1.1"><metadata
     id="metadata34"><rdf:RDF><cc:Work
         rdf:about=""><dc:format>image/svg+xml</dc:format><dc:type
           rdf:resource="http://purl.org/dc/dcmitype/StillImage" /><dc:title></dc:title></cc:Work></rdf:RDF></metadata><defs
     id="defs32"><clipPath
       id="clipPath44"
       clipPathUnits="userSpaceOnUse"><path
         id="path42"
         d="M 0,600 H 600 V 0 H 0 Z" /></clipPath></defs><g
     transform="matrix(1.3333333,0,0,-1.3333333,-41.286666,722.44665)"
     id="g36"><path
       id="path96"
       style="fill:#734119;fill-opacity:1;fill-rule:evenodd;stroke:none"
       d="m 115.368,265.232 c 21.402,0 38.857,33.487 38.857,74.546 0,41.057 -17.455,74.544 -38.857,74.544 -21.402,0 -38.857,-33.487 -38.857,-74.544 0,-41.059 17.455,-74.546 38.857,-74.546" /><path
       id="path98"
       style="fill:#734119;fill-opacity:1;fill-rule:evenodd;stroke:none"
       d="m 101.441,271.632 c 31.444,0 57.091,48.129 57.091,107.137 0,59.009 -25.647,107.137 -57.091,107.137 -31.443,0 -57.088,-48.128 -57.088,-107.137 0,-59.008 25.645,-107.137 57.088,-107.137" /><path
       id="path100"
       style="fill:#5d3417;fill-opacity:1;fill-rule:evenodd;stroke:none"
       d="m 134.431,317.379 c 23.754,0 43.128,35.106 43.128,78.146 0,43.042 -19.374,78.146 -43.128,78.146 -23.754,0 -43.129,-35.104 -43.129,-78.146 0,-43.04 19.375,-78.146 43.129,-78.146" /><path
       id="path102"
       style="fill:#efb371;fill-opacity:1;fill-rule:evenodd;stroke:none"
       d="m 411.095,473.208 33.971,-9.036 18.358,-67.349 -55.435,36.281 -0.453,1.588 z" /><path
       id="path104"
       style="fill:#dc9d5a;fill-opacity:1;fill-rule:evenodd;stroke:none"
       d="m 380.371,450.766 30.724,22.442 12.904,-73.326 -38.603,-1.613 z" /><path
       id="path106"
       style="fill:#f14960;fill-opacity:1;fill-rule:evenodd;stroke:none"
       d="m 445.066,464.172 -34.911,23.12 0.94,-14.084 z" /><path
       id="path108"
       style="fill:#ef3646;fill-opacity:1;fill-rule:evenodd;stroke:none"
       d="m 410.155,487.292 -29.784,-36.526 30.724,22.442 z" /><path
       id="path110"
       style="fill:#46a2c5;fill-opacity:1;fill-rule:evenodd;stroke:none"
       d="m 416.307,463.616 27.342,-5.611 3.748,-13.649 -28.41,4.723 z" /><path
       id="path112"
       style="fill:#56bcdd;fill-opacity:1;fill-rule:evenodd;stroke:none"
       d="m 442.541,455.632 2.522,-9.648 -12.091,1.77 z" /><path
       id="path114"
       style="fill:#efb371;fill-opacity:1;fill-rule:evenodd;stroke:none"
       d="m 173.994,525.717 36.893,-16.214 8.939,-79.519 -56.405,50.852 -0.236,1.88 z" /><path
       id="path116"
       style="fill:#dc9d5a;fill-opacity:1;fill-rule:evenodd;stroke:none"
       d="m 135.244,505.703 38.75,20.014 1.715,-85.328 -44.011,4.965 z" /><path
       id="path118"
       style="fill:#7c4a1e;fill-opacity:1;fill-rule:evenodd;stroke:none"
       d="m 491.66,446.367 c 24.141,0 46.353,-41.097 49.61,-91.795 3.258,-50.697 -13.671,-91.795 -37.813,-91.795 -24.141,0 -46.353,41.098 -49.611,91.795 -3.257,50.698 13.673,91.795 37.814,91.795" /><path
       id="path120"
       style="fill:#f7d7b6;fill-opacity:1;fill-rule:evenodd;stroke:none"
       d="m 479.894,421.903 -5.599,11.746 c -106.806,-1.757 -214.661,22.144 -322.923,56.826 l 16.392,-19.397 133.048,-90.975 167.199,39.067 z" /><path
       id="path122"
       style="fill:#945d29;fill-opacity:1;fill-rule:evenodd;stroke:none"
       d="m 528.269,366.592 c 24.14,0 46.352,-41.097 49.609,-91.795 3.259,-50.695 -13.67,-91.794 -37.813,-91.794 -24.14,0 -46.352,41.099 -49.609,91.794 -3.259,50.698 13.671,91.795 37.813,91.795" /><path
       id="path124"
       style="fill:#dc9d5a;fill-opacity:1;fill-rule:evenodd;stroke:none"
       d="m 463.445,415.567 c 5.484,2.112 10.966,4.224 16.449,6.336 -118.97,3.879 -226.538,19.705 -322.921,59.011 3.855,-8.371 7.712,-16.742 11.569,-25.113 32.788,-23.868 65.578,-47.738 98.367,-71.605 65.513,10.455 131.025,20.914 196.536,31.371" /><path
       id="path126"
       style="fill:#71c82c;fill-opacity:1;fill-rule:evenodd;stroke:none"
       d="m 296.122,208.284 c 123.54,7.539 223.688,-6.881 223.688,-32.211 0,-25.329 -100.148,-51.974 -223.688,-59.514 -123.539,-7.54 -223.687,6.881 -223.687,32.211 0,25.329 100.148,51.973 223.687,59.514" /><path
       id="path128"
       style="fill:#4dbd38;fill-opacity:1;fill-rule:evenodd;stroke:none"
       d="m 169.482,166.132 c 11.407,0 21.814,-0.909 29.724,-2.407 6.74,2.781 20.34,4.68 36.021,4.68 22.385,0 40.53,-3.873 40.53,-8.649 0,-4.778 -18.145,-8.652 -40.53,-8.652 -9.181,0 -17.649,0.654 -24.445,1.75 -6.794,-3.436 -22.726,-5.847 -41.3,-5.847 -24.744,0 -44.804,4.281 -44.804,9.563 0,5.281 20.06,9.562 44.804,9.562" /><path
       id="path130"
       style="fill:#fde0c0;fill-opacity:1;fill-rule:evenodd;stroke:none"
       d="m 402.724,145.217 c 78.673,0 142.841,11.554 142.841,25.718 0,14.165 -64.168,25.717 -142.841,25.717 -78.676,0 -142.844,-11.552 -142.844,-25.717 0,-14.164 64.168,-25.718 142.844,-25.718" /><path
       id="path132"
       style="fill:#fbc589;fill-opacity:1;fill-rule:evenodd;stroke:none"
       d="m 178.104,462.904 c 70.356,-25.211 153.708,-45.47 285.341,-47.337 4.887,-79.598 22.056,-143.639 48.798,-195.552 -105.915,-7.179 -211.831,-14.359 -317.746,-21.537 -5.464,88.142 -10.929,176.284 -16.393,264.426" /><path
       id="path134"
       style="fill:#f8bb76;fill-opacity:1;fill-rule:evenodd;stroke:none"
       d="m 178.104,462.904 c 70.356,-25.211 153.708,-45.47 285.341,-47.337 0.455,-7.417 1.017,-14.696 1.683,-21.843 -129.614,30.42 -224.696,42.377 -280.731,33.457 l -4.155,1.222 z" /><path
       id="path136"
       style="fill:#58c8f0;fill-opacity:1;fill-rule:evenodd;stroke:none"
       d="m 385.9,232.127 c 108.472,0 195.04,-17.047 193.357,-38.076 -1.685,-21.028 -90.984,-38.076 -199.455,-38.076 -108.473,0 -195.04,17.048 -193.357,38.076 1.685,21.029 90.983,38.076 199.455,38.076" /><path
       id="path138"
       style="fill:#49aeda;fill-opacity:1;fill-rule:evenodd;stroke:none"
       d="m 385.9,232.127 c 23.023,0 45.051,-0.772 65.467,-2.182 -196.171,-12.016 -226.168,-36.922 -176.956,-67.969 -53.909,6.768 -89.045,18.604 -87.965,32.075 1.682,21.029 90.985,38.076 199.454,38.076" /><path
       id="path140"
       style="fill:#734119;fill-opacity:1;fill-rule:evenodd;stroke:none"
       d="m 151.915,160.795 c 33.103,0 60.105,49.089 60.105,109.277 0,60.19 -27.002,109.281 -60.105,109.281 -33.105,0 -60.103,-49.091 -60.103,-109.281 0,-60.188 26.998,-109.277 60.103,-109.277" /><path
       id="path142"
       style="fill:#945d29;fill-opacity:1;fill-rule:evenodd;stroke:none"
       d="m 187.084,321.442 c 20.18,0 40.513,-33.27 45.418,-74.312 4.904,-41.043 -7.479,-74.317 -27.657,-74.317 -20.18,0 -40.515,33.274 -45.419,74.317 -4.904,41.042 7.478,74.312 27.658,74.312" /><path
       id="path144"
       style="fill:#945d29;fill-opacity:1;fill-rule:evenodd;stroke:none"
       d="m 161.634,417.408 c 24.142,0 46.352,-41.097 49.611,-91.795 3.259,-50.697 -13.672,-91.795 -37.812,-91.795 -24.142,0 -46.353,41.098 -49.612,91.795 -3.257,50.698 13.671,91.795 37.813,91.795" /><path
       id="path146"
       style="fill:#4dbd38;fill-opacity:1;fill-rule:evenodd;stroke:none"
       d="m 140.063,279.287 c 16.251,0 29.506,13.255 29.506,29.506 0,16.251 -13.255,29.506 -29.506,29.506 -16.25,0 -29.504,-13.255 -29.504,-29.506 0,-16.251 13.254,-29.506 29.504,-29.506" /><path
       id="path148"
       style="fill:#4dbd38;fill-opacity:1;fill-rule:evenodd;stroke:none"
       d="m 116.57,307.7 c 12.188,0 22.129,9.941 22.129,22.129 0,12.189 -9.941,22.129 -22.129,22.129 -12.188,0 -22.129,-9.94 -22.129,-22.129 0,-12.188 9.941,-22.129 22.129,-22.129" /><path
       id="path150"
       style="fill:#4dbd38;fill-opacity:1;fill-rule:evenodd;stroke:none"
       d="m 96.366,329.829 c 9.682,0 17.577,7.898 17.577,17.579 0,9.68 -7.895,17.577 -17.577,17.577 -9.681,0 -17.578,-7.897 -17.578,-17.577 0,-9.681 7.897,-17.579 17.578,-17.579" /><path
       id="path152"
       style="fill:#4dbd38;fill-opacity:1;fill-rule:evenodd;stroke:none"
       d="m 78.32,327.917 c 5.117,0 9.289,4.172 9.289,9.289 0,5.116 -4.172,9.288 -9.289,9.288 -5.115,0 -9.288,-4.172 -9.288,-9.288 0,-5.117 4.173,-9.289 9.288,-9.289" /><path
       id="path154"
       style="fill:#945d29;fill-opacity:1;fill-rule:evenodd;stroke:none"
       d="m 89.663,184.836 c 32.331,0 58.7,35.253 58.7,78.477 0,43.226 -26.369,78.48 -58.7,78.48 -32.33,0 -58.698,-35.254 -58.698,-78.48 0,-43.224 26.368,-78.477 58.698,-78.477" /><path
       id="path156"
       style="fill:#734119;fill-opacity:1;fill-rule:evenodd;stroke:none"
       d="m 92.926,161.341 c 29.156,0 52.936,10.772 52.936,23.981 0,13.209 -23.78,23.983 -52.936,23.983 -29.156,0 -52.938,-10.774 -52.938,-23.983 0,-13.209 23.782,-23.981 52.938,-23.981" /><path
       id="path158"
       style="fill:#e7a968;fill-opacity:1;fill-rule:evenodd;stroke:none"
       d="m 233.67,297.068 c 18.595,-14.892 32.31,-36.613 36.101,-72.227 10.403,1.453 21.548,2.717 33.294,3.765 -9.828,31.142 -26.11,56.346 -52.99,71.797 -5.469,-1.111 -10.936,-2.222 -16.405,-3.335" /><path
       id="path160"
       style="fill:#734119;fill-opacity:1;fill-rule:evenodd;stroke:none"
       d="m 200.59,150.053 c 25.729,0 46.716,10.924 46.716,24.314 0,13.393 -20.987,24.316 -46.716,24.316 -25.732,0 -46.718,-10.923 -46.718,-24.316 0,-13.39 20.986,-24.314 46.718,-24.314" /><path
       id="path162"
       style="fill:#e7a968;fill-opacity:1;fill-rule:evenodd;stroke:none"
       d="m 354.249,288.594 c 15.005,-12.019 26.331,-29.185 30.429,-56.47 l 1.222,0.003 c 9.365,0 18.564,-0.129 27.556,-0.373 -8.561,25.841 -22.477,46.755 -45.033,59.723 -4.726,-0.961 -9.45,-1.921 -14.174,-2.883" /><path
       id="path164"
       style="fill:#58c8f0;fill-opacity:1;fill-rule:evenodd;stroke:none"
       d="m 361.315,307.526 c -5.669,-0.809 -9.88,-5.666 -9.88,-11.391 0,-5.729 4.211,-10.584 9.88,-11.394 38.626,-5.517 68.976,-35.867 74.494,-74.493 h 60.543 v 5.153 c -21.614,45.471 -46.289,89.009 -135.037,92.125" /><path
       id="path166"
       style="fill:#945d29;fill-opacity:1;fill-rule:evenodd;stroke:none"
       d="m 146.369,148.654 c 19.051,0 34.591,9.001 34.591,20.039 0,11.037 -15.54,20.037 -34.591,20.037 -19.053,0 -34.592,-9 -34.592,-20.037 0,-11.038 15.539,-20.039 34.592,-20.039" /><path
       id="path168"
       style="fill:#58c8f0;fill-opacity:1;fill-rule:evenodd;stroke:none"
       d="m 241.849,318.982 c -6.563,-0.937 -11.435,-6.558 -11.435,-13.186 0,-6.629 4.872,-12.249 11.435,-13.188 44.71,-6.386 79.837,-41.514 86.224,-86.223 h 70.075 v 5.966 c -25.015,52.63 -53.576,103.024 -156.299,106.631" /><path
       id="path170"
       style="fill:#dc9d5a;fill-opacity:1;fill-rule:evenodd;stroke:none"
       d="m 441.585,391.377 c 1.561,-25.172 4.903,-49.753 11.747,-73.287 -2.641,-0.159 -5.281,-0.319 -7.923,-0.477 -5.638,23.779 -8.751,48.325 -10.654,73.287 2.276,0.161 4.553,0.32 6.83,0.477" /><path
       id="path172"
       style="fill:#dc9d5a;fill-opacity:1;fill-rule:evenodd;stroke:none"
       d="m 408.359,396.655 c 1.617,-26.424 5.072,-52.22 12.15,-76.923 -2.732,-0.167 -5.463,-0.333 -8.194,-0.501 -5.831,24.958 -9.049,50.721 -11.019,76.923 2.355,0.165 4.71,0.333 7.063,0.501" /><path
       id="path174"
       style="fill:#dc9d5a;fill-opacity:1;fill-rule:evenodd;stroke:none"
       d="m 373.783,402.07 c 1.667,-27.67 5.238,-54.686 12.55,-80.553 -2.821,-0.175 -5.644,-0.35 -8.465,-0.526 -6.023,26.138 -9.348,53.116 -11.384,80.556 2.434,0.174 4.866,0.35 7.299,0.523" /><path
       id="path176"
       style="fill:#dc9d5a;fill-opacity:1;fill-rule:evenodd;stroke:none"
       d="m 337.737,407.642 c 1.722,-28.918 5.407,-57.155 12.952,-84.19 -2.912,-0.182 -5.824,-0.366 -8.735,-0.55 -6.217,27.318 -9.647,55.514 -11.748,84.192 2.51,0.181 5.022,0.364 7.531,0.548" /><path
       id="path178"
       style="fill:#dc9d5a;fill-opacity:1;fill-rule:evenodd;stroke:none"
       d="m 300.093,413.378 c 1.776,-30.167 5.574,-59.622 13.352,-87.824 -3.001,-0.19 -6.003,-0.38 -9.005,-0.573 -6.409,28.496 -9.946,57.909 -12.11,87.824 2.586,0.191 5.175,0.382 7.763,0.573" /><path
       id="path180"
       style="fill:#dc9d5a;fill-opacity:1;fill-rule:evenodd;stroke:none"
       d="m 260.699,419.296 c 1.83,-31.416 5.743,-62.09 13.754,-91.459 -3.09,-0.197 -6.183,-0.397 -9.274,-0.595 -6.602,29.674 -10.246,60.304 -12.476,91.457 2.666,0.199 5.331,0.398 7.996,0.597" /><path
       id="path182"
       style="fill:#dc9d5a;fill-opacity:1;fill-rule:evenodd;stroke:none"
       d="m 219.39,425.413 c 1.883,-32.662 5.909,-64.556 14.155,-95.092 -3.182,-0.207 -6.363,-0.412 -9.545,-0.62 -6.796,30.855 -10.545,62.702 -12.841,95.093 2.744,0.206 5.487,0.412 8.231,0.619" /><path
       id="path184"
       style="fill:#90dbf4;fill-opacity:1;fill-rule:evenodd;stroke:none"
       d="m 410.444,186.958 c 64.241,0 116.636,5.343 116.636,11.893 0,6.55 -52.395,11.892 -116.636,11.892 -64.24,0 -116.634,-5.342 -116.634,-11.892 0,-6.55 52.394,-11.893 116.634,-11.893" /><path
       id="path186"
       style="fill:#90dbf4;fill-opacity:1;fill-rule:evenodd;stroke:none"
       d="m 464.456,202.802 c 30.851,0 56.014,3.841 56.014,8.55 0,4.707 -25.163,8.548 -56.014,8.548 -30.852,0 -56.013,-3.841 -56.013,-8.548 0,-4.709 25.161,-8.55 56.013,-8.55" /><path
       id="path188"
       style="fill:#90dbf4;fill-opacity:1;fill-rule:evenodd;stroke:none"
       d="m 317.449,194.425 c 5.042,0 9.153,4.111 9.153,9.152 0,5.04 -4.111,9.152 -9.153,9.152 -5.041,0 -9.151,-4.112 -9.151,-9.152 0,-5.041 4.11,-9.152 9.151,-9.152" /><path
       id="path190"
       style="fill:#90dbf4;fill-opacity:1;fill-rule:evenodd;stroke:none"
       d="m 331.105,198.429 c 5.023,0 9.119,4.095 9.119,9.118 0,5.02 -4.096,9.117 -9.119,9.117 -5.021,0 -9.116,-4.097 -9.116,-9.117 0,-5.023 4.095,-9.118 9.116,-9.118" /><path
       id="path192"
       style="fill:#90dbf4;fill-opacity:1;fill-rule:evenodd;stroke:none"
       d="m 349.788,193.375 c 7.486,0 13.592,6.104 13.592,13.592 0,7.485 -6.106,13.592 -13.592,13.592 -7.487,0 -13.593,-6.107 -13.593,-13.592 0,-7.488 6.106,-13.592 13.593,-13.592" /><path
       id="path194"
       style="fill:#90dbf4;fill-opacity:1;fill-rule:evenodd;stroke:none"
       d="m 365.11,193.375 c 6.605,0 11.994,5.387 11.994,11.992 0,6.606 -5.389,11.994 -11.994,11.994 -6.603,0 -11.992,-5.388 -11.992,-11.994 0,-6.605 5.389,-11.992 11.992,-11.992" /><path
       id="path196"
       style="fill:#90dbf4;fill-opacity:1;fill-rule:evenodd;stroke:none"
       d="m 386.899,192.828 c 7.719,0 14.017,6.298 14.017,14.018 0,7.72 -6.298,14.016 -14.017,14.016 -7.72,0 -14.017,-6.296 -14.017,-14.016 0,-7.72 6.297,-14.018 14.017,-14.018" /><path
       id="path198"
       style="fill:#90dbf4;fill-opacity:1;fill-rule:evenodd;stroke:none"
       d="m 399.714,201.435 c 5.042,0 9.152,4.112 9.152,9.152 0,5.041 -4.11,9.151 -9.152,9.151 -5.041,0 -9.152,-4.11 -9.152,-9.151 0,-5.04 4.111,-9.152 9.152,-9.152" /><path
       id="path200"
       style="fill:#90dbf4;fill-opacity:1;fill-rule:evenodd;stroke:none"
       d="m 443.313,201.161 c 8.281,0 15.035,6.755 15.035,15.036 0,8.282 -6.754,15.035 -15.035,15.035 -8.283,0 -15.037,-6.753 -15.037,-15.035 0,-8.281 6.754,-15.036 15.037,-15.036" /><path
       id="path202"
       style="fill:#90dbf4;fill-opacity:1;fill-rule:evenodd;stroke:none"
       d="m 461.647,205.828 c 6.613,0 12.005,5.393 12.005,12.005 0,6.612 -5.392,12.006 -12.005,12.006 -6.612,0 -12.004,-5.394 -12.004,-12.006 0,-6.612 5.392,-12.005 12.004,-12.005" /><path
       id="path204"
       style="fill:#90dbf4;fill-opacity:1;fill-rule:evenodd;stroke:none"
       d="m 480.805,200.455 c 7.791,0 14.146,6.355 14.146,14.144 0,7.792 -6.355,14.147 -14.146,14.147 -7.791,0 -14.146,-6.355 -14.146,-14.147 0,-7.789 6.355,-14.144 14.146,-14.144" /><path
       id="path206"
       style="fill:#90dbf4;fill-opacity:1;fill-rule:evenodd;stroke:none"
       d="m 495.606,212.362 c 4.591,0 8.333,3.743 8.333,8.332 0,4.591 -3.742,8.333 -8.333,8.333 -4.588,0 -8.332,-3.742 -8.332,-8.333 0,-4.589 3.744,-8.332 8.332,-8.332" /><path
       id="path208"
       style="fill:#c8edf9;fill-opacity:1;fill-rule:evenodd;stroke:none"
       d="m 483.165,203.045 c 11.557,0 20.983,1.454 20.983,3.235 0,1.785 -9.426,3.24 -20.983,3.24 -11.557,0 -20.982,-1.455 -20.982,-3.24 0,-1.781 9.425,-3.235 20.982,-3.235" /><path
       id="path210"
       style="fill:#c8edf9;fill-opacity:1;fill-rule:evenodd;stroke:none"
       d="m 489.052,189.141 c 14.294,0 25.954,2.086 25.954,4.644 0,2.558 -11.66,4.644 -25.954,4.644 -14.295,0 -25.954,-2.086 -25.954,-4.644 0,-2.558 11.659,-4.644 25.954,-4.644" /><path
       id="path212"
       style="fill:#c8edf9;fill-opacity:1;fill-rule:evenodd;stroke:none"
       d="m 388.308,192.165 c 15.057,0 27.339,1.588 27.339,3.535 0,1.947 -12.282,3.537 -27.339,3.537 -15.059,0 -27.34,-1.59 -27.34,-3.537 0,-1.947 12.281,-3.535 27.34,-3.535" /><path
       id="path214"
       style="fill:#c8edf9;fill-opacity:1;fill-rule:evenodd;stroke:none"
       d="m 456.161,201.61 c 8.539,0 15.503,1.298 15.503,2.889 0,1.591 -6.964,2.891 -15.503,2.891 -8.54,0 -15.504,-1.3 -15.504,-2.891 0,-1.591 6.964,-2.889 15.504,-2.889" /><path
       id="path216"
       style="fill:#90dbf4;fill-opacity:1;fill-rule:evenodd;stroke:none"
       d="m 266.801,310.438 c 45.522,-6.76 82.981,-25.826 100.81,-74.857 -20.989,38.232 -52.134,65.771 -100.81,74.857" /><path
       id="path218"
       style="fill:#90dbf4;fill-opacity:1;fill-rule:evenodd;stroke:none"
       d="m 277.157,297.868 c 32.229,-5.749 57.14,-21.962 64.232,-63.653 -10.673,32.509 -29.993,55.925 -64.232,63.653" /><path
       id="path220"
       style="fill:#c78c4e;fill-opacity:1;fill-rule:evenodd;stroke:none"
       d="m 119.569,462.598 c 14.827,0 26.919,8.574 26.919,19.088 0,10.513 -12.092,19.087 -26.919,19.087 -14.828,0 -26.921,-8.574 -26.921,-19.087 0,-10.514 12.093,-19.088 26.921,-19.088" /><path
       id="path222"
       style="fill:#90dbf4;fill-opacity:1;fill-rule:evenodd;stroke:none"
       d="m 384.154,301.951 c 40.341,-5.99 73.538,-22.886 89.336,-66.336 -18.599,33.88 -46.201,58.284 -89.336,66.336" /><path
       id="path224"
       style="fill:#90dbf4;fill-opacity:1;fill-rule:evenodd;stroke:none"
       d="m 393.331,290.812 c 28.562,-5.094 50.637,-19.461 56.922,-56.406 -9.458,28.807 -26.578,49.559 -56.922,56.406" /><path
       id="path226"
       style="fill:#f14960;fill-opacity:1;fill-rule:evenodd;stroke:none"
       d="m 210.887,509.503 -35.477,32.332 -1.416,-16.118 z" /><path
       id="path228"
       style="fill:#ef3646;fill-opacity:1;fill-rule:evenodd;stroke:none"
       d="m 175.41,541.835 -40.166,-36.132 38.75,20.014 z" /><path
       id="path230"
       style="fill:#46a2c5;fill-opacity:1;fill-rule:evenodd;stroke:none"
       d="m 178.211,513.935 29.983,-11.168 1.844,-16.119 -31.35,10.348 z" /><path
       id="path232"
       style="fill:#56bcdd;fill-opacity:1;fill-rule:evenodd;stroke:none"
       d="m 206.521,500.274 1.161,-11.372 -13.387,4.133 z" /><path
       id="path234"
       style="fill:#ac7239;fill-opacity:1;fill-rule:evenodd;stroke:none"
       d="m 103.801,274.441 c 19.862,0 36.062,9.45 36.062,21.037 0,11.586 -16.2,21.036 -36.062,21.036 -19.863,0 -36.062,-9.45 -36.062,-21.036 0,-11.587 16.199,-21.037 36.062,-21.037" /><path
       id="path236"
       style="fill:#c78c4e;fill-opacity:1;fill-rule:evenodd;stroke:none"
       d="m 97.583,308.317 c 9.969,0 18.098,4.172 18.098,9.289 0,5.116 -8.129,9.29 -18.098,9.29 -9.968,0 -18.098,-4.174 -18.098,-9.29 0,-5.117 8.13,-9.289 18.098,-9.289" /><path
       id="path238"
       style="fill:#ac7239;fill-opacity:1;fill-rule:evenodd;stroke:none"
       d="m 173.813,218.097 c 21.871,0 39.708,10.712 39.708,23.844 0,13.134 -17.837,23.846 -39.708,23.846 -21.87,0 -39.707,-10.712 -39.707,-23.846 0,-13.132 17.837,-23.844 39.707,-23.844" /><path
       id="path240"
       style="fill:#c78c4e;fill-opacity:1;fill-rule:evenodd;stroke:none"
       d="m 181.296,251.025 c 11.204,0 20.34,5.13 20.34,11.419 0,6.291 -9.136,11.419 -20.34,11.419 -11.203,0 -20.341,-5.128 -20.341,-11.419 0,-6.289 9.138,-11.419 20.341,-11.419" /><path
       id="path242"
       style="fill:#ac7239;fill-opacity:1;fill-rule:evenodd;stroke:none"
       d="m 144.91,494.834 c 20.52,0 38.221,-30.823 39.533,-68.845 1.315,-38.022 -14.256,-68.845 -34.776,-68.845 -20.52,0 -38.22,30.823 -39.534,68.845 -1.312,38.022 14.258,68.845 34.777,68.845" /><path
       id="path244"
       style="fill:#c78c4e;fill-opacity:1;fill-rule:evenodd;stroke:none"
       d="m 176.104,179.098 c 17.153,0 31.14,7.179 31.14,15.981 0,8.803 -13.987,15.983 -31.14,15.983 -17.148,0 -31.137,-7.18 -31.137,-15.983 0,-8.802 13.989,-15.981 31.137,-15.981" /></g></svg>
